<svg width="500" height="237" viewBox="0 0 500 237" fill="none" xmlns="http://www.w3.org/2000/svg">
<path d="M483.564 236.075H16.4365C14.8038 236.075 13.2548 235.322 12.2919 233.982C1.19771 219.078 -3.07249 194.043 2.32806 175.79C5.59351 164.822 11.9988 156.7 20.9997 152.137C15.0968 97.3774 57.6314 66.8162 77.0985 58.4432C93.3002 29.2216 119.173 16.9971 138.221 11.8896C164.512 4.85631 190.594 7.70312 203.949 14.1503C224.63 0 237.817 0 249.581 0H250H250.419C262.099 0 275.328 0 296.051 14.1503C309.448 7.70312 335.488 4.85631 361.779 11.8896C380.827 16.9971 406.742 29.2216 422.902 58.4432C442.369 66.8162 484.903 97.3774 479 152.137C488.001 156.7 494.407 164.822 497.672 175.79C503.073 194.043 498.802 219.036 487.708 233.982C486.745 235.28 485.196 236.075 483.564 236.075ZM19.1158 225.777H480.842C488.043 214.473 492.481 194.671 487.75 178.763C484.987 169.385 479.545 163.147 471.59 160.175C469.33 159.337 467.948 156.993 468.283 154.607C475.986 102.276 434.121 73.8913 417.375 67.3604C416.203 66.8999 415.282 66.0626 414.696 64.9741C400.336 37.8039 376.557 26.5841 359.1 21.8953C332.139 14.6945 306.936 19.2578 298.438 24.6165C296.679 25.7468 294.377 25.6631 292.66 24.449C273.109 10.3825 261.597 10.3825 250.419 10.3825H249.581C238.403 10.3825 226.891 10.3825 207.34 24.449C205.623 25.6631 203.363 25.7468 201.562 24.6165C193.022 19.2578 167.861 14.6945 140.9 21.8953C123.485 26.5423 99.7055 37.8039 85.3459 64.9741C84.7598 66.0626 83.7969 66.8999 82.6665 67.3604C65.8788 73.8913 24.0559 102.276 31.759 154.607C32.0939 157.035 30.7542 159.337 28.4517 160.175C20.4974 163.147 15.055 169.385 12.2919 178.763C7.56116 194.671 11.9988 214.473 19.1996 225.777H19.1158Z" fill="#E22A00"/>
<path d="M32.4272 161.514C31.0875 161.514 29.7478 160.928 28.7431 160.007C27.7802 159.044 27.236 157.705 27.236 156.365C27.236 155.025 27.7802 153.686 28.7431 152.723C29.9572 151.509 31.7155 150.964 33.3901 151.341C33.725 151.425 34.0599 151.509 34.353 151.634C34.646 151.76 34.9809 151.927 35.2321 152.095C35.5252 152.262 35.8182 152.513 36.0276 152.723C36.9905 153.686 37.5347 155.025 37.5347 156.365C37.5347 157.705 36.9905 159.044 36.0276 160.007C35.8182 160.216 35.5252 160.468 35.2321 160.635C34.9809 160.803 34.646 160.97 34.353 161.096C34.0599 161.221 33.725 161.305 33.3901 161.389C33.0552 161.472 32.7202 161.514 32.3853 161.514H32.4272Z" fill="#E22A00"/>
<path d="M51.3092 165.743C48.5462 165.115 46.746 162.394 47.374 159.631C47.9601 156.867 50.7231 155.067 53.4862 155.653C56.2493 156.281 58.0495 159.003 57.4215 161.766C56.9191 164.194 54.784 165.827 52.3977 165.827C52.0209 165.827 51.6442 165.785 51.3092 165.701V165.743Z" fill="#E22A00"/>
<path d="M72.3641 170.18C72.0292 170.18 71.6943 170.138 71.3593 170.055C71.0244 169.971 70.6895 169.887 70.3964 169.762C70.0615 169.636 69.7685 169.468 69.5173 169.301C69.2242 169.134 68.9312 168.882 68.7219 168.673C67.759 167.71 67.2147 166.37 67.2147 164.989C67.2147 164.654 67.2566 164.319 67.3403 163.984C67.424 163.649 67.5078 163.314 67.6334 163.021C67.759 162.686 67.8846 162.393 68.0939 162.142C68.2613 161.849 68.4707 161.598 68.7219 161.347C68.9312 161.137 69.2242 160.886 69.5173 160.719C69.7685 160.551 70.1034 160.384 70.3964 160.258C70.7314 160.133 71.0244 160.049 71.3593 159.965C72.0292 159.84 72.699 159.84 73.3688 159.965C73.7038 160.049 74.0387 160.133 74.3317 160.258C74.6667 160.384 74.9597 160.551 75.2528 160.719C75.5039 160.886 75.797 161.137 76.0063 161.347C76.2575 161.598 76.4668 161.849 76.6762 162.142C76.8436 162.393 77.0111 162.728 77.1367 163.021C77.2623 163.356 77.346 163.649 77.4297 163.984C77.5135 164.319 77.5135 164.654 77.5135 164.989C77.5135 166.37 76.9692 167.668 76.0063 168.673C75.797 168.882 75.5039 169.134 75.2528 169.301C74.9597 169.468 74.6667 169.636 74.3317 169.762C74.0387 169.887 73.7038 169.971 73.3688 170.055C73.0339 170.138 72.699 170.18 72.3641 170.18Z" fill="#E22A00"/>
<path d="M87.607 72.1747C87.2721 72.1747 86.9372 72.1328 86.6023 72.0909C86.2673 72.0072 85.9324 71.9235 85.6394 71.7979C85.3044 71.6723 85.0114 71.5048 84.7602 71.3374C84.4671 71.1281 84.1741 70.9187 83.9648 70.6675C83.7136 70.4582 83.5043 70.1652 83.3368 69.914C83.1275 69.6209 82.96 69.3279 82.8763 68.9929C82.7507 68.6999 82.667 68.365 82.5832 68.0301C82.4995 67.6951 82.4576 67.3602 82.4576 67.0253C82.4576 66.6904 82.4995 66.3555 82.5832 66.0206C82.667 65.6856 82.7507 65.3507 82.8763 65.0577C83.0019 64.7227 83.1275 64.4297 83.3368 64.1785C83.5043 63.8854 83.7136 63.5924 83.9648 63.3831C84.1741 63.1319 84.4671 62.9226 84.7602 62.7132C85.0114 62.5458 85.3463 62.3783 85.6394 62.2527C85.9743 62.1271 86.2673 62.0015 86.6023 61.9178C87.2721 61.7922 87.9419 61.7922 88.6118 61.9178C88.9467 62.0015 89.2816 62.0853 89.5746 62.2527C89.9096 62.3783 90.2026 62.5039 90.4957 62.7132C90.7469 62.9226 91.0399 63.1319 91.2492 63.3831C92.2121 64.346 92.7564 65.6856 92.7564 67.0253C92.7564 67.3602 92.7564 67.6951 92.6726 68.0301C92.5889 68.365 92.5052 68.6999 92.3796 68.9929C92.254 69.3279 92.0865 69.6209 91.9191 69.914C91.7097 70.1652 91.5004 70.4582 91.2492 70.6675C91.0399 70.9187 90.7469 71.1281 90.4957 71.3374C90.2026 71.5048 89.9096 71.6723 89.5746 71.7979C89.2816 71.9235 88.9467 72.0072 88.6118 72.0909C88.2768 72.1328 87.9419 72.1747 87.607 72.1747Z" fill="#E22A00"/>
<path d="M102.34 83.2689C99.9533 81.6781 99.3672 78.4545 100.958 76.11C102.549 73.7238 105.773 73.1376 108.117 74.7285C110.461 76.3194 111.089 79.5429 109.498 81.8874C108.494 83.3526 106.861 84.1481 105.228 84.1481C104.224 84.1481 103.219 83.855 102.34 83.227V83.2689Z" fill="#E22A00"/>
<path d="M122.898 96.121C121.558 96.121 120.218 95.5349 119.256 94.6139C118.293 93.651 117.748 92.3113 117.748 90.9717C117.748 89.632 118.293 88.2923 119.256 87.2876C121.181 85.4037 124.656 85.4037 126.54 87.2876C127.503 88.2505 128.047 89.5901 128.047 90.9717C128.047 92.3532 127.503 93.651 126.54 94.6139C125.577 95.5768 124.238 96.121 122.898 96.121Z" fill="#E22A00"/>
<path d="M204.408 31.1476C203.069 31.1476 201.729 30.5615 200.766 29.6405C199.803 28.6776 199.259 27.3379 199.259 25.9564C199.259 24.5748 199.803 23.277 200.766 22.3141C200.975 22.1048 201.269 21.8536 201.52 21.6861C201.813 21.5187 202.106 21.3512 202.441 21.2256C202.776 21.1 203.069 21.0163 203.404 20.9326C205.036 20.5977 206.878 21.1419 208.051 22.3141C209.014 23.277 209.558 24.6167 209.558 25.9564C209.558 27.296 209.014 28.6357 208.051 29.6405C207.088 30.6452 205.748 31.1476 204.408 31.1476Z" fill="#E22A00"/>
<path d="M204.825 47.8094C204.113 45.0464 205.746 42.2414 208.509 41.4878C211.272 40.7761 214.077 42.4089 214.831 45.1719C215.542 47.935 213.91 50.74 211.147 51.4517C210.728 51.5773 210.267 51.6191 209.849 51.6191C207.546 51.6191 205.495 50.0701 204.867 47.7676L204.825 47.8094Z" fill="#E22A00"/>
<path d="M215.166 72.1749C214.831 72.1749 214.496 72.1331 214.162 72.0912C213.827 72.0075 213.492 71.9237 213.199 71.7981C212.864 71.6725 212.571 71.5051 212.319 71.3376C212.026 71.1283 211.775 70.919 211.524 70.6678C211.315 70.4585 211.064 70.1654 210.896 69.9142C210.729 69.6212 210.561 69.3281 210.436 68.9932C210.31 68.7001 210.226 68.3652 210.143 68.0303C210.059 67.6954 210.017 67.3605 210.017 67.0256C210.017 66.6906 210.059 66.3557 210.143 66.0208C210.226 65.6859 210.31 65.351 210.436 65.0579C210.561 64.723 210.729 64.4299 210.896 64.1787C211.064 63.8857 211.315 63.5926 211.524 63.3833C211.775 63.1321 212.026 62.9228 212.319 62.7135C212.571 62.546 212.906 62.3786 213.199 62.253C213.534 62.1274 213.827 62.0018 214.162 61.918C214.831 61.7925 215.501 61.7925 216.171 61.918C216.506 62.0018 216.841 62.0855 217.134 62.253C217.427 62.3786 217.762 62.5042 218.013 62.7135C218.306 62.9228 218.557 63.1321 218.809 63.3833C219.018 63.5926 219.269 63.8857 219.436 64.1787C219.604 64.4299 219.771 64.7649 219.897 65.0579C220.023 65.3928 220.106 65.6859 220.19 66.0208C220.274 66.3557 220.274 66.6906 220.274 67.0256C220.274 67.3605 220.274 67.6954 220.19 68.0303C220.106 68.3652 220.023 68.7001 219.897 68.9932C219.771 69.3281 219.604 69.6212 219.436 69.9142C219.269 70.1654 219.018 70.4585 218.809 70.6678C218.557 70.919 218.306 71.1283 218.013 71.3376C217.762 71.5051 217.427 71.6725 217.134 71.7981C216.799 71.9237 216.506 72.0075 216.171 72.0912C215.836 72.1331 215.501 72.1749 215.166 72.1749Z" fill="#E22A00"/>
<path d="M468.238 163.942C466.898 163.942 465.559 163.356 464.596 162.435C463.633 161.472 463.089 160.132 463.089 158.793C463.089 157.453 463.675 156.113 464.596 155.109C466.522 153.183 469.996 153.225 471.88 155.109C472.09 155.36 472.341 155.611 472.508 155.904C472.676 156.155 472.843 156.49 472.969 156.825C473.094 157.118 473.178 157.453 473.262 157.788C473.346 158.123 473.346 158.458 473.346 158.793C473.346 160.132 472.801 161.472 471.838 162.435C470.876 163.398 469.536 163.942 468.154 163.942H468.238Z" fill="#E22A00"/>
<path d="M442.785 164.235C442.157 161.43 443.958 158.709 446.763 158.123C449.526 157.495 452.289 159.295 452.875 162.1C453.461 164.863 451.703 167.626 448.898 168.213C448.521 168.296 448.144 168.338 447.809 168.338C445.423 168.338 443.288 166.705 442.785 164.277V164.235Z" fill="#E22A00"/>
<path d="M427.379 172.692C427.044 172.692 426.709 172.65 426.374 172.566C426.039 172.483 425.746 172.399 425.411 172.273C425.076 172.148 424.783 172.022 424.49 171.813C424.239 171.645 423.946 171.394 423.737 171.185C423.486 170.934 423.276 170.682 423.067 170.389C422.899 170.138 422.732 169.803 422.606 169.51C422.481 169.175 422.397 168.882 422.313 168.547C422.23 168.212 422.23 167.877 422.23 167.542C422.23 167.208 422.23 166.873 422.313 166.538C422.397 166.203 422.481 165.868 422.606 165.575C422.732 165.24 422.899 164.947 423.067 164.654C423.276 164.403 423.486 164.11 423.737 163.9C424.951 162.686 426.709 162.142 428.384 162.477C428.719 162.561 429.012 162.644 429.347 162.77C429.682 162.895 429.975 163.063 430.268 163.23C430.519 163.44 430.812 163.649 431.021 163.9C431.272 164.11 431.482 164.403 431.691 164.654C431.859 164.947 432.026 165.24 432.152 165.575C432.277 165.868 432.403 166.203 432.486 166.538C432.528 166.873 432.57 167.208 432.57 167.542C432.57 167.877 432.528 168.212 432.486 168.547C432.403 168.882 432.319 169.217 432.152 169.51C432.026 169.845 431.9 170.138 431.691 170.389C431.482 170.682 431.272 170.934 431.021 171.185C430.812 171.394 430.519 171.645 430.268 171.813C429.975 172.022 429.682 172.189 429.347 172.273C429.012 172.399 428.719 172.483 428.384 172.566C428.049 172.65 427.714 172.692 427.379 172.692Z" fill="#E22A00"/>
<path d="M412.855 72.1751C411.515 72.1751 410.175 71.6309 409.213 70.668C408.25 69.7051 407.705 68.3654 407.705 67.0257C407.705 66.6908 407.747 66.3559 407.831 66.021C407.915 65.6861 407.999 65.393 408.124 65.0581C408.25 64.7232 408.375 64.4301 408.585 64.1371C408.752 63.8859 408.961 63.5928 409.213 63.3835C410.427 62.1694 412.185 61.6252 413.86 61.9601C414.195 62.0438 414.529 62.1276 414.822 62.2532C415.116 62.3788 415.45 62.5462 415.702 62.7137C415.953 62.923 416.246 63.1323 416.455 63.3835C416.706 63.5928 416.916 63.8859 417.125 64.1371C417.293 64.4301 417.46 64.7232 417.586 65.0581C417.711 65.393 417.795 65.6861 417.879 66.021C417.962 66.3559 417.962 66.6908 417.962 67.0257C417.962 68.3654 417.418 69.7051 416.455 70.668C416.246 70.9192 415.953 71.1285 415.702 71.3378C415.45 71.5053 415.116 71.6727 414.822 71.7983C414.488 71.9239 414.153 72.0076 413.86 72.0914C413.525 72.1751 413.19 72.1751 412.855 72.1751Z" fill="#E22A00"/>
<path d="M390.961 81.8878C389.37 79.5433 389.956 76.3198 392.342 74.7289C394.687 73.138 397.91 73.766 399.501 76.1104C401.092 78.4549 400.506 81.6784 398.162 83.2693C397.241 83.8554 396.278 84.1485 395.273 84.1485C393.64 84.1485 392.008 83.353 391.003 81.8878H390.961Z" fill="#E22A00"/>
<path d="M377.563 96.1217C377.228 96.1217 376.893 96.0798 376.558 95.9961C376.223 95.9124 375.888 95.8287 375.595 95.7031C375.26 95.5775 374.967 95.41 374.674 95.2425C374.423 95.0751 374.13 94.8239 373.921 94.6146C373.67 94.3634 373.46 94.1122 373.251 93.8191C373.083 93.568 372.916 93.233 372.79 92.94C372.665 92.6051 372.581 92.312 372.497 91.9771C372.414 91.6422 372.414 91.3073 372.414 90.9723C372.414 89.6327 372.958 88.293 373.921 87.2882C374.13 87.0789 374.423 86.8277 374.674 86.6603C374.967 86.4928 375.26 86.3254 375.595 86.1998C375.888 86.0742 376.223 85.9904 376.558 85.9067C378.275 85.5718 380.033 86.116 381.205 87.2882C381.456 87.5394 381.666 87.7906 381.833 88.0837C382.043 88.3349 382.21 88.6698 382.294 88.9628C382.419 89.2977 382.545 89.6327 382.587 89.9257C382.671 90.2606 382.712 90.5956 382.712 90.9305C382.712 91.2654 382.671 91.6003 382.587 91.9352C382.545 92.2701 382.419 92.6051 382.294 92.8981C382.168 93.233 382.043 93.5261 381.833 93.7773C381.666 94.0703 381.456 94.3215 381.205 94.5727C380.242 95.5356 378.903 96.0798 377.563 96.0798V96.1217Z" fill="#E22A00"/>
<path d="M294.167 29.6822C292.828 29.6822 291.488 29.138 290.525 28.1751C290.274 27.9658 290.065 27.6727 289.897 27.4215C289.688 27.1285 289.52 26.8354 289.437 26.5005C289.311 26.1656 289.185 25.8725 289.144 25.5376C289.06 25.2027 289.018 24.8678 289.018 24.5329C289.018 24.1979 289.06 23.863 289.144 23.5281C289.185 23.1932 289.311 22.8583 289.437 22.5652C289.562 22.2303 289.688 21.9372 289.897 21.6442C290.065 21.393 290.274 21.0999 290.525 20.8906C292.451 18.9648 295.926 18.9648 297.81 20.8906C298.061 21.0999 298.27 21.393 298.479 21.6442C298.647 21.9372 298.814 22.2303 298.94 22.5652C299.066 22.8583 299.149 23.1932 299.233 23.5281C299.317 23.863 299.317 24.1979 299.317 24.5329C299.317 24.8678 299.317 25.2027 299.233 25.5376C299.149 25.8725 299.066 26.1656 298.94 26.5005C298.814 26.8354 298.647 27.1285 298.479 27.4215C298.27 27.6727 298.061 27.9658 297.81 28.1751C296.847 29.138 295.507 29.6822 294.167 29.6822Z" fill="#E22A00"/>
<path d="M287.092 49.903C284.329 49.1494 282.738 46.3026 283.492 43.5396C284.246 40.8183 287.092 39.1856 289.855 39.9811C292.577 40.7346 294.209 43.5814 293.456 46.3445C292.828 48.6471 290.735 50.1123 288.474 50.1123C288.013 50.1123 287.553 50.0286 287.092 49.903Z" fill="#E22A00"/>
<path d="M282.823 70.5003C281.484 70.5003 280.144 69.9561 279.139 68.9932C278.176 68.0303 277.632 66.6906 277.632 65.3091C277.632 63.9276 278.176 62.6298 279.139 61.6669C281.065 59.7411 284.54 59.7411 286.424 61.6669C287.387 62.6298 287.931 63.9694 287.931 65.3091C287.931 66.6488 287.345 67.9884 286.424 68.9932C285.461 69.9561 284.121 70.5003 282.782 70.5003H282.823Z" fill="#E22A00"/>
</svg>
