<svg width="26" height="24" viewBox="0 0 26 24" fill="none" xmlns="http://www.w3.org/2000/svg">
<rect x="0.5" y="0.5" width="25" height="22.5" rx="2.5" stroke="#131A12"/>
<path d="M7 7.75C7 7.55109 7.07902 7.36032 7.21967 7.21967C7.36032 7.07902 7.55109 7 7.75 7H18.25C18.4489 7 18.6397 7.07902 18.7803 7.21967C18.921 7.36032 19 7.55109 19 7.75C19 7.94891 18.921 8.13968 18.7803 8.28033C18.6397 8.42098 18.4489 8.5 18.25 8.5H7.75C7.55109 8.5 7.36032 8.42098 7.21967 8.28033C7.07902 8.13968 7 7.94891 7 7.75ZM7 11.75C7 11.5511 7.07902 11.3603 7.21967 11.2197C7.36032 11.079 7.55109 11 7.75 11H18.25C18.4489 11 18.6397 11.079 18.7803 11.2197C18.921 11.3603 19 11.5511 19 11.75C19 11.9489 18.921 12.1397 18.7803 12.2803C18.6397 12.421 18.4489 12.5 18.25 12.5H7.75C7.55109 12.5 7.36032 12.421 7.21967 12.2803C7.07902 12.1397 7 11.9489 7 11.75ZM7 15.75C7 15.5511 7.07902 15.3603 7.21967 15.2197C7.36032 15.079 7.55109 15 7.75 15H18.25C18.4489 15 18.6397 15.079 18.7803 15.2197C18.921 15.3603 19 15.5511 19 15.75C19 15.9489 18.921 16.1397 18.7803 16.2803C18.6397 16.421 18.4489 16.5 18.25 16.5H7.75C7.55109 16.5 7.36032 16.421 7.21967 16.2803C7.07902 16.1397 7 15.9489 7 15.75Z" fill="#131A12"/>
</svg>
