<svg width="50" height="50" viewBox="0 0 50 50" fill="none" xmlns="http://www.w3.org/2000/svg">
<path d="M36.4583 13.5417H36.4791M14.5833 4.16666H35.4166C41.1696 4.16666 45.8333 8.83036 45.8333 14.5833V35.4167C45.8333 41.1696 41.1696 45.8333 35.4166 45.8333H14.5833C8.83033 45.8333 4.16663 41.1696 4.16663 35.4167V14.5833C4.16663 8.83036 8.83033 4.16666 14.5833 4.16666ZM33.3333 23.6875C33.5904 25.4213 33.2942 27.1921 32.487 28.7479C31.6797 30.3038 30.4023 31.5654 28.8367 32.3535C27.271 33.1415 25.4967 33.4158 23.7662 33.1374C22.0356 32.8589 20.437 32.0418 19.1975 30.8024C17.9581 29.563 17.1411 27.9643 16.8626 26.2338C16.5841 24.5032 16.8584 22.7289 17.6465 21.1633C18.4345 19.5976 19.6962 18.3203 21.252 17.513C22.8078 16.7057 24.5786 16.4096 26.3125 16.6667C28.081 16.9289 29.7184 17.753 30.9827 19.0173C32.2469 20.2816 33.071 21.9189 33.3333 23.6875Z" stroke="#131A12" stroke-width="2" stroke-linecap="round" stroke-linejoin="round"/>
</svg>
