<?xml version="1.0" encoding="UTF-8"?>
<svg id="_レイヤー_2" data-name="レイヤー 2" xmlns="http://www.w3.org/2000/svg" viewBox="0 0 491.95 42.15">
  <defs>
    <style>
      .cls-1 {
        fill: #e22a00;
      }
    </style>
  </defs>
  <g id="_レイヤー_1-2" data-name="レイヤー 1">
    <g>
      <g>
        <path class="cls-1" d="M117.72,29.31c.36-.48.5-1.07.41-1.68-.1-.65-.47-1.25-1.02-1.64-.97-.71-2.34-.49-3.13.51-1.91,2.43-5.58,5-8.72,6.13-1.19.42-1.95,1.67-1.7,2.8.13.67.53,1.23,1.1,1.56.31.18.65.27.99.27.22,0,.43-.04.64-.11,4.25-1.4,9.05-4.69,11.43-7.83Z"/>
        <path class="cls-1" d="M133.62,23.67c-.59-.17-1.22-.1-1.77.21-.59.33-1.01.88-1.19,1.54-.31,1.13.45,2.4,1.66,2.76,3.51,1.03,5.88,3.39,7.06,7.02h0c.36,1.09,1.35,1.8,2.41,1.8.16,0,.33-.02.49-.05.66-.16,1.22-.58,1.55-1.16.3-.53.36-1.14.17-1.71-1.59-5.31-5.28-9.01-10.37-10.42Z"/>
        <path class="cls-1" d="M123.95,20.79c-1.93-.99-3-1.53-1.95-4.69.36-1.24-.26-2.49-1.42-2.86-1.3-.37-2.64.32-3.05,1.55-2.12,6.18,1.22,8.16,4.16,9.91,1.19.71,2.31,1.38,3.02,2.27,1.54,1.91,2.01,3.89,1.24,5.32-.99,1.86-3.91,2.66-8.21,2.27-.61-.08-1.22.11-1.67.51-.45.39-.69.94-.69,1.54-.05,1.34.93,2.48,2.23,2.58.77.07,1.52.1,2.24.1,4.45,0,7.81-1.29,9.6-3.72,1.73-2.35,1.83-5.54.31-9.23-1.8-3.51-4.11-4.69-5.8-5.55Z"/>
        <path class="cls-1" d="M121.21,2.11c-1.26-.45-2.62.21-3.15,1.55-.42,1.15.22,2.41,1.45,2.87,2.61.89,5.16,2.92,6.66,5.3h0c.37.56.91.93,1.52,1.04.13.03.27.04.4.04.41,0,.82-.12,1.16-.36,1.09-.78,1.43-2.28.77-3.36-2.01-3.18-5.3-5.83-8.81-7.08Z"/>
        <path class="cls-1" d="M169.33,22.3l-.14-.15q-2.18-2.39,0-4.83c3.38-3.68,5.98-6.76,8.7-12.91.52-1.19-.05-2.64-1.24-3.16-.56-.27-1.2-.3-1.78-.08-.6.22-1.08.69-1.34,1.27-2.59,5.84-5.48,9.16-7.59,11.59-1.79,2.06-3.09,3.55-3.09,5.39,0,2.29,1.14,3.62,2.87,5.62,2.11,2.44,5.29,6.13,8.72,14.22.23.57.69,1.04,1.27,1.29.3.13.61.19.93.19s.62-.06.92-.19c1.2-.52,1.8-1.93,1.34-3.16-2.69-6.88-5.76-11.01-9.56-15.11Z"/>
        <path class="cls-1" d="M238.62,14.8c-2.97-2.19-6.88-3.56-11-3.85-.61-.05-1.19.15-1.66.56-.46.41-.74.96-.79,1.58-.05,1.19.88,2.24,2.08,2.35,3.35.29,6.38,1.33,8.76,3.01.42.31.89.45,1.35.45.66,0,1.3-.3,1.73-.88h0c.75-1.07.53-2.52-.47-3.23Z"/>
        <path class="cls-1" d="M229.37,19.82c-4.17-1.12-8.93-.63-13.77,1.42-.1-2.23-.28-4.42-.45-6.32,1.99-.54,3.83-1.15,5.48-1.82.56-.23.98-.66,1.2-1.21.22-.55.2-1.17-.05-1.72-.53-1.11-1.83-1.61-2.97-1.14-1.22.51-2.6.97-4.19,1.41-.38-2.75-.85-5.19-1.35-7.09-.3-1.19-1.56-1.94-2.81-1.66-.58.15-1.06.52-1.35,1.03-.29.51-.37,1.11-.22,1.69.52,1.97.98,4.4,1.35,7.03-2.27.46-4.82.76-7.79.91-.58.02-1.13.28-1.54.72-.41.44-.63,1-.6,1.57,0,.6.24,1.17.67,1.58.44.42,1.02.63,1.63.61,2.68-.13,5.35-.43,8.15-.92.22,2.4.36,4.97.41,7.62-1.93,1.21-3.81,2.64-5.6,4.25-2.83,2.57-4.05,4.75-3.72,6.67.42,2.42,3.23,3.88,5.64,4.89,2.43.94,4.35,1.01,5.7.21,1.17-.7,1.89-2.04,2.14-3.99.3-3.2.42-6.4.38-9.52,5.11-2.64,10.19-3.21,13.6-1.53,2.06,1.02,3.37,2.8,3.77,5.16.34,2.02-.62,3.9-2.57,5.04-2.02,1.18-5.17,1.46-7.64-.55-.94-.78-2.23-.82-3.06-.09-.99.89-1.12,2.3-.3,3.23,1.64,1.79,3.83,2.73,6.71,2.87.27.02.54.02.8.02,6.28,0,9.78-4.22,10.47-8.55.72-4.43-1.52-10.02-8.12-11.81ZM211.16,28.87c-.05,2.26-.15,4.52-.23,5.6h0c-.01.15-.02.29-.03.42-.03.46-.05.86-.18.94-.26.15-1.34-.41-3.3-1.42l-.18-.09c-.49-.24-.87-.44-.91-.67-.05-.28.29-.76,1.06-1.54,1.05-1.09,2.34-2.2,3.75-3.22Z"/>
        <path class="cls-1" d="M282.5,10.92c-.92-1.07-2.52-1.19-3.65-.26-.47.4-.76.96-.8,1.58-.05.65.18,1.29.64,1.8,3.02,3.23,6.89,9.04,8.72,15.68.18.64.61,1.18,1.19,1.49.35.19.73.28,1.11.28.24,0,.48-.04.72-.11h.01c1.34-.52,2.09-1.99,1.64-3.2-1.68-5.23-5.97-12.97-9.56-17.26Z"/>
        <path class="cls-1" d="M267.27,10.68c.57-2.77.93-5.01,1.14-7.04.1-1.24-.81-2.34-2.04-2.45-.03,0-.07,0-.1,0-1.18,0-2.19.89-2.29,2.03-.29,2.76-.71,5.54-1.26,8.28-2.47.46-4.22.54-6.64.31-1.26-.07-2.33.8-2.49,1.99-.05.65.15,1.29.56,1.76.37.42.88.67,1.43.69,2.14.17,3.96.13,6.04-.15-2.09,7.79-5.16,14.89-8.9,20.56-.67.98-.44,2.38.53,3.13.39.27.84.41,1.3.41.14,0,.29-.01.43-.04.58-.11,1.08-.45,1.41-.95,3.94-6.03,7.55-14.78,9.9-24.04,3-.59,5.01-.44,6,.46.8.73.8,1.82.7,2.78-.99,9.34-1.88,14.28-4,15.41-1.03.55-2.41.26-4.76-.98-.55-.3-1.18-.37-1.77-.19-.57.17-1.03.56-1.31,1.08-.31.56-.37,1.2-.19,1.8.18.58.56,1.04,1.08,1.32,3.44,1.74,6.33,2.13,8.59,1.15,2.11-.92,3.66-3.03,4.59-6.27.69-2.41,1.82-8,2.2-12.9.18-1.9,0-4.53-1.87-6.34-1.71-1.65-4.5-2.26-8.27-1.81Z"/>
        <path class="cls-1" d="M345.02,37.69c-3.2-1.92-6.23-4.61-8.76-7.79,1.92-2.87,3.54-6.19,4.56-9.36.11-.36.13-.73.08-1.08.63.57,1.32,1.16,2.05,1.66.46.32,1.03.4,1.57.25.58-.17,1.05-.58,1.29-1.14.42-1.05.05-2.27-.91-3.03-1.61-1.33-3.61-3.66-4.96-5.82-.2-.29-.44-.52-.71-.7h4.12c1.21,0,2.19-.98,2.19-2.19s-.98-2.19-2.19-2.19h-7.57v-4c0-1.26-1.01-2.29-2.24-2.29s-2.29,1.05-2.29,2.29v4h-7.33c-.64,0-1.22.28-1.62.71.03-.87-.43-1.73-1.24-2.22-1.76-.95-3.06-2.03-4.48-3.35-1.2-1.15-3.07-1.19-4.27-.1-1.89,1.76-4.89,4.21-7.63,5.79-1.12.66-1.6,2.03-1.13,3.2.25.58.74,1.03,1.33,1.21.57.18,1.2.1,1.71-.22.71-.42,1.43-.88,2.14-1.37.05.99.88,1.77,1.91,1.77h6.95c1.05,0,1.91-.83,1.91-1.86,0-.47-.17-.89-.45-1.23.1.05.2.11.3.16.51.28,1.11.32,1.65.12.28-.1.53-.27.73-.49v.05c0,1.23.96,2.19,2.19,2.19h3.81c-.32.2-.59.49-.79.85-1.29,2.22-2.88,4.07-4.62,5.37-.24.19-.44.41-.59.66v-1.17c0-1.68-1.42-3.1-3.1-3.1h-9.38c-1.68,0-3.1,1.42-3.1,3.1v23.62c0,1.16,1.01,2.15,2.2,2.15s2.15-.96,2.15-2.15v-1.14h8.47c.42,0,.81-.13,1.13-.34-.38.59-.48,1.34-.22,2.03.23.6.7,1.07,1.27,1.3.53.21,1.11.19,1.61-.05,3.96-1.75,7.6-4.54,10.82-8.3,3.05,3.65,6.44,6.52,9.81,8.29.47.27,1.05.32,1.57.11.55-.21.96-.66,1.14-1.22.41-1.09-.05-2.37-1.08-2.99ZM317.59,7.95h-6.09c1.11-.87,2.13-1.7,3.05-2.5,1.11.97,2.11,1.75,3.36,2.52-.1-.02-.21-.03-.32-.03ZM335.89,11.89c-.16.54-.09,1.1.19,1.59.75,1.29,1.77,2.7,2.93,4.05-.42-.07-.85-.01-1.25.18-.53.26-.94.75-1.12,1.33-.71,2.35-1.75,4.69-3.1,6.96-1.29-2.2-2.3-4.46-3.01-6.73-.18-.56-.59-1.03-1.12-1.28-.28-.13-.58-.19-.87-.19-.27,0-.54.05-.8.16-.05.02-.11.05-.16.07,1.25-1.35,2.33-2.84,3.22-4.47.54-1.03.21-2.24-.77-2.9h6.79c-.46.28-.79.71-.93,1.22ZM321.73,20c.36.52.9.87,1.49.96.59.09,1.16-.06,1.62-.43.57-.44,1.12-.91,1.64-1.39-.27.55-.34,1.18-.13,1.78,1.02,3.03,2.58,6.13,4.51,8.97-2.71,3.35-5.99,5.95-9.74,7.74-.14.06-.27.14-.39.22.18-.31.29-.66.29-1.05,0-1.11-.94-2.05-2.05-2.05h-8.47v-1.18h8.9c1.13,0,2.05-.92,2.05-2.05s-.94-2.1-2.05-2.1h-8.9v-1.13h8.14c1.68,0,3.1-1.42,3.1-3.1v-5.19ZM310.5,18.81v-1.56h7.09v1.56h-7.09ZM310.5,24.33v-1.56h7.09v1.56h-7.09Z"/>
        <path class="cls-1" d="M394.72,18.71h-15.95v-1.02c4.47-2.48,9.23-7.38,11.88-12.22.36-.69.33-1.5-.08-2.17-.42-.7-1.17-1.11-2-1.11h-24.67c-1.26,0-2.29,1.01-2.29,2.24s1.01,2.29,2.29,2.29h20.48c-1.7,2.34-3.9,4.44-6.57,6.23-.42-.28-.89-.43-1.34-.43-1.24,0-2.29,1.05-2.29,2.29v3.9h-16.14c-1.24,0-2.24,1.03-2.24,2.29s.98,2.24,2.24,2.24h16.14v12.47c0,.54-.09.85-.32,1.07-.56.54-2.05.66-5.9.5-1.25-.04-2.34.95-2.39,2.19,0,1.29.96,2.33,2.23,2.43.73.04,1.41.05,2.05.05,3.71,0,6.02-.61,7.38-1.9,1.03-.98,1.53-2.4,1.53-4.35v-12.47h15.95c1.24,0,2.24-1.01,2.24-2.24s-.98-2.29-2.24-2.29Z"/>
        <path class="cls-1" d="M427.42,11.77h-12.01c-2.25,0-4.09,1.84-4.09,4.09v23.46c0,1.47,1.23,2.66,2.7,2.66s2.66-1.18,2.66-2.66v-10.71h9.89c1.47,0,2.7-1.19,2.7-2.66s-1.23-2.66-2.7-2.66h-9.89v-6.21h9.48v.2c0,1.47,1.18,2.66,2.66,2.66s2.7-1.18,2.7-2.66v-1.43c0-2.25-1.84-4.09-4.09-4.09Z"/>
        <path class="cls-1" d="M456.89,12.18h-12.38c-2.25,0-4.09,1.84-4.09,4.09v21.62c0,2.25,1.84,4.09,4.09,4.09h12.38c2.25,0,4.09-1.84,4.09-4.09v-1.51c0-1.47-1.23-2.66-2.7-2.66s-2.66,1.18-2.66,2.66v.33h-9.85v-7.64h10.83c1.47,0,2.66-1.18,2.66-2.66s-1.19-2.7-2.66-2.7h-10.83v-6.21h9.85v.37c0,1.47,1.18,2.66,2.66,2.66s2.7-1.18,2.7-2.66v-1.59c0-2.25-1.84-4.09-4.09-4.09Z"/>
        <path class="cls-1" d="M488.89,26.52l-12.54-4.25c-.49-.16-.86-.61-.86-1.14,0-1.02-.16-1.47.53-2.21.41-.45.7-.65.86-.9.49-.53.9-.61,1.43-.61,1.47,0,3.84.04,5.27.04.57,0,1.1.2,1.51.61l.86.86c.37.41.61.94.61,1.47v.86c0,1.47,1.19,2.66,2.66,2.66s2.66-1.18,2.66-2.66v-1.59c-.04-1.8-.57-2.9-1.63-3.96l-1.92-1.92c-1.06-1.06-2.66-1.63-4.13-1.63h-6.33c-1.51,0-2.98.57-4,1.63l-2.04,1.92c-1.06,1.06-1.63,2.45-1.63,3.96v2.66c0,3.11,1.72,4.09,3.35,4.62l11.16,3.68c1.14.37,1.92.7,1.92,2.12v.94c0,.53-.08.86-.61,1.47-.24.33-.57.57-.86.86-.37.41-.9.61-1.47.61h-5.56c-.57,0-1.51-.61-1.51-.65-1.27-1.27-1.43-1.19-1.47-2.86,0-.04.04-.65.04-.69,0-1.47-1.23-2.66-2.7-2.66s-2.66,1.18-2.66,2.66v2c0,1.27.41,2.37,1.63,3.96l1.96,1.96c1.02,1.02,2.45,1.63,3.96,1.63h7.07c1.47,0,2.86-.61,3.92-1.63l1.96-1.96c1.02-1.06,1.63-2.45,1.63-3.96v-3.92c0-1.39-1.35-3.39-3.07-3.96Z"/>
      </g>
      <g>
        <path class="cls-1" d="M79.43,40.65H2.7c-.27,0-.52-.13-.68-.34-1.82-2.45-2.52-6.56-1.64-9.56.53-1.8,1.59-3.13,3.07-3.89-.97-8.99,6.02-14.02,9.22-15.39,2.66-4.8,6.91-6.81,10.04-7.65,4.32-1.16,8.6-.69,10.8.37,3.4-2.32,5.57-2.32,7.49-2.32h.14c1.92.01,4.09,0,7.49,2.32,2.2-1.06,6.48-1.52,10.8-.37,3.13.84,7.38,2.84,10.04,7.65,3.2,1.38,10.18,6.4,9.22,15.39,1.48.75,2.53,2.08,3.07,3.89.89,3,.18,7.11-1.64,9.56-.16.22-.41.34-.68.34ZM3.14,38.96h75.84c1.19-1.86,1.91-5.11,1.14-7.72-.46-1.54-1.35-2.57-2.66-3.05-.37-.14-.6-.52-.54-.92,1.26-8.6-5.61-13.26-8.37-14.33-.19-.07-.35-.21-.44-.39-2.36-4.46-6.27-6.31-9.13-7.07-4.43-1.19-8.57-.44-9.97.44-.29.18-.67.17-.95-.03-3.21-2.31-5.1-2.31-6.94-2.31h-.14c-1.83,0-3.73,0-6.94,2.31-.28.2-.65.21-.95.03-1.4-.88-5.54-1.63-9.97-.44-2.86.77-6.77,2.61-9.13,7.07-.1.18-.25.32-.44.39-2.76,1.07-9.63,5.74-8.37,14.33.06.4-.17.78-.54.92-1.31.49-2.2,1.51-2.66,3.05-.77,2.61-.05,5.86,1.14,7.72Z"/>
        <g>
          <path class="cls-1" d="M5.33,28.4c-.23,0-.44-.09-.6-.25-.16-.16-.25-.37-.25-.6s.09-.44.25-.6c.32-.32.88-.32,1.2,0,.16.16.25.38.25.6s-.09.44-.25.6c-.16.16-.37.25-.6.25Z"/>
          <path class="cls-1" d="M8.43,29.09c-.46-.1-.75-.55-.65-1.01h0c.1-.46.55-.75,1.01-.65h0c.46.1.75.55.65,1.01h0c-.09.4-.44.67-.83.67h0c-.06,0-.12,0-.18-.02Z"/>
          <path class="cls-1" d="M11.89,29.82c-.23,0-.44-.09-.6-.25-.16-.16-.25-.37-.25-.6s.09-.44.25-.6c.32-.32.88-.32,1.2,0,.16.16.25.38.25.6s-.09.44-.25.6c-.16.16-.38.25-.6.25Z"/>
        </g>
        <g>
          <path class="cls-1" d="M14.39,13.72c-.06,0-.11,0-.16-.01-.06-.01-.11-.03-.16-.05-.05-.02-.1-.05-.14-.08s-.09-.07-.13-.11c-.16-.16-.25-.37-.25-.6,0-.05,0-.11.02-.16.01-.06.03-.11.05-.16.02-.05.05-.1.08-.14.03-.05.07-.09.1-.13.2-.2.49-.29.77-.23.06.01.11.03.16.05.05.02.1.05.14.08.05.03.09.07.13.1.04.04.07.08.1.13.03.04.06.09.08.14.02.05.04.1.05.16.01.06.01.11.01.16,0,.23-.09.44-.25.6-.04.04-.09.08-.13.11-.04.03-.1.06-.14.08-.05.02-.1.04-.16.05-.05.01-.11.01-.17.01Z"/>
          <path class="cls-1" d="M16.81,15.55c-.39-.26-.49-.79-.22-1.18h0c.26-.39.79-.49,1.17-.23h0c.39.26.49.79.23,1.18h0c-.16.24-.43.37-.7.37h0c-.16,0-.33-.05-.48-.14Z"/>
          <path class="cls-1" d="M20.19,17.66c-.23,0-.44-.09-.6-.25-.16-.16-.25-.37-.25-.6,0-.06,0-.11.01-.17.01-.05.03-.11.05-.16.02-.05.05-.1.08-.15.03-.04.07-.09.11-.13.32-.32.88-.32,1.2,0,.04.04.07.08.1.13.03.05.06.1.08.15.02.05.04.1.05.16.01.06.02.11.02.17,0,.23-.09.44-.25.6-.16.16-.37.25-.6.25Z"/>
        </g>
        <g>
          <path class="cls-1" d="M33.58,6.99c-.06,0-.11,0-.16-.02-.06-.01-.11-.03-.16-.05-.05-.02-.1-.04-.14-.08-.04-.03-.09-.06-.13-.1-.16-.16-.25-.37-.25-.6,0-.06,0-.11.01-.17.01-.05.03-.11.05-.16.02-.05.05-.1.08-.15.03-.04.07-.09.1-.13.32-.31.88-.32,1.2,0,.04.04.07.09.1.13.03.04.06.1.08.15.02.05.04.11.05.16.01.06.02.11.02.17s0,.11-.02.17c-.01.05-.03.1-.05.16-.02.05-.04.1-.08.14-.03.05-.06.09-.1.13-.16.16-.38.25-.6.25Z"/>
          <path class="cls-1" d="M33.65,9.72c-.12-.45.15-.92.61-1.04h0c.45-.12.91.15,1.03.61h0c.12.45-.15.92-.6,1.04h0c-.07.02-.14.03-.22.03h0c-.38,0-.72-.25-.82-.63Z"/>
          <path class="cls-1" d="M35.35,13.72c-.23,0-.44-.09-.6-.25-.16-.16-.25-.37-.25-.6,0-.05,0-.11.01-.16.01-.06.03-.11.05-.16.02-.05.05-.1.08-.14.03-.05.07-.09.11-.13.19-.2.49-.29.76-.23.06.01.11.03.16.05.05.02.1.05.14.08.05.03.09.07.13.1.04.04.07.08.1.13.03.04.06.09.08.14.02.05.04.1.05.16.01.06.02.11.02.16,0,.23-.09.44-.25.6-.04.04-.08.08-.13.11-.04.03-.09.06-.14.08-.05.02-.1.04-.16.05-.06.01-.11.01-.17.01Z"/>
        </g>
        <g>
          <path class="cls-1" d="M76.92,28.8c-.06,0-.11,0-.17-.01-.05-.01-.11-.03-.16-.05-.05-.02-.1-.05-.15-.08-.04-.03-.09-.07-.13-.11-.16-.16-.25-.37-.25-.6,0-.06,0-.11.01-.16.01-.06.03-.11.05-.16.02-.05.05-.1.08-.15.03-.04.07-.09.11-.13.04-.04.08-.07.13-.11.05-.03.1-.06.15-.08.05-.02.1-.04.16-.05.28-.05.57.04.77.23.04.04.07.08.1.13.03.05.06.1.08.15.02.05.04.1.05.16.01.05.02.11.02.16,0,.23-.09.44-.25.6-.16.16-.37.25-.6.25Z"/>
          <path class="cls-1" d="M72.73,28.85c-.1-.46.19-.91.65-1.01h0c.46-.1.91.19,1.01.65h0c.1.46-.19.91-.65,1.01h0c-.06.01-.12.02-.18.02h0c-.39,0-.74-.27-.83-.67Z"/>
          <path class="cls-1" d="M70.2,30.24c-.23,0-.44-.09-.6-.25-.16-.16-.25-.37-.25-.6s.09-.44.25-.6c.04-.04.08-.07.13-.11.04-.03.09-.06.14-.08.05-.02.1-.04.16-.05.27-.05.57.04.77.23.16.16.25.38.25.6s-.09.44-.25.6c-.16.16-.38.25-.6.25Z"/>
        </g>
        <g>
          <path class="cls-1" d="M67.82,13.72c-.06,0-.12,0-.17-.01-.06-.01-.11-.03-.16-.05-.05-.02-.1-.05-.14-.08s-.09-.07-.13-.11c-.16-.16-.25-.37-.25-.6,0-.05,0-.11.01-.16.01-.06.03-.11.05-.16.02-.05.05-.1.08-.14.03-.05.07-.09.1-.13.04-.04.08-.07.13-.1.04-.03.1-.06.14-.08.05-.02.11-.04.16-.05.11-.02.22-.02.33,0,.06.01.11.03.16.05.05.02.1.05.14.08.05.03.09.07.13.1.04.04.07.08.1.13.03.04.06.09.08.14.02.05.04.1.05.16.01.06.02.11.02.16,0,.23-.09.44-.25.6-.16.16-.38.25-.6.25Z"/>
          <path class="cls-1" d="M64.22,15.32c-.26-.39-.16-.91.23-1.18h0c.39-.26.91-.16,1.18.23h0c.26.39.16.91-.23,1.18h0c-.14.1-.31.14-.48.14h0c-.27,0-.54-.13-.7-.37Z"/>
          <path class="cls-1" d="M62.02,17.66c-.22,0-.44-.09-.6-.25-.16-.16-.25-.37-.25-.6,0-.06,0-.11.02-.17.01-.05.03-.11.05-.16.02-.05.04-.1.08-.15.03-.04.07-.09.1-.13.32-.32.88-.32,1.2,0,.04.04.07.08.1.13.03.05.06.1.08.15.02.05.04.1.05.16.01.06.01.11.01.17,0,.23-.09.44-.25.6-.16.16-.38.25-.6.25Z"/>
        </g>
        <g>
          <path class="cls-1" d="M48.32,6.74c-.06,0-.12,0-.17-.01-.06-.01-.11-.03-.16-.05-.05-.02-.1-.05-.14-.08-.04-.03-.09-.07-.13-.11-.16-.16-.25-.37-.25-.6s.09-.44.25-.6c.04-.04.08-.07.13-.1.04-.03.1-.06.14-.08.05-.02.1-.04.16-.05.27-.06.57.03.77.23.16.16.25.38.25.6s-.09.44-.25.6c-.16.16-.37.25-.6.25Z"/>
          <path class="cls-1" d="M47.16,10.07c-.45-.13-.71-.59-.59-1.04h0c.12-.45.59-.71,1.04-.59h0c.45.13.72.59.59,1.04h0c-.1.38-.45.62-.82.62h0c-.07,0-.15-.01-.23-.03Z"/>
          <path class="cls-1" d="M46.46,13.46c-.06,0-.11,0-.17-.02-.05-.01-.11-.03-.16-.05-.05-.02-.1-.04-.15-.08-.04-.03-.09-.06-.13-.1-.16-.16-.25-.37-.25-.6,0-.06,0-.11.01-.17.01-.05.03-.11.05-.16.02-.05.05-.1.08-.15.03-.04.07-.09.11-.13.19-.2.49-.29.76-.23.06.01.11.03.16.05.05.02.1.05.14.08.05.03.09.07.13.11.04.04.07.08.1.13.03.04.06.1.08.15.02.05.04.11.05.16.01.06.01.11.01.17,0,.22-.09.44-.25.6-.16.16-.37.25-.6.25Z"/>
        </g>
      </g>
    </g>
  </g>
</svg>