<svg width="19" height="26" viewBox="0 0 19 26" fill="none" xmlns="http://www.w3.org/2000/svg">
<path d="M10.6727 25.4158C13.2109 22.1472 19 14.2251 19 9.7753C19 4.37852 14.7448 0 9.5 0C4.25521 0 0 4.37852 0 9.7753C0 14.2251 5.78906 22.1472 8.32734 25.4158C8.93594 26.1947 10.0641 26.1947 10.6727 25.4158ZM9.5 6.51686C10.3399 6.51686 11.1453 6.86016 11.7392 7.47124C12.333 8.08231 12.6667 8.91111 12.6667 9.7753C12.6667 10.6395 12.333 11.4683 11.7392 12.0794C11.1453 12.6904 10.3399 13.0337 9.5 13.0337C8.66015 13.0337 7.85469 12.6904 7.26083 12.0794C6.66696 11.4683 6.33333 10.6395 6.33333 9.7753C6.33333 8.91111 6.66696 8.08231 7.26083 7.47124C7.85469 6.86016 8.66015 6.51686 9.5 6.51686Z" fill="#E22A00"/>
</svg>
