<svg width="13" height="23" viewBox="0 0 13 23" fill="none" xmlns="http://www.w3.org/2000/svg">
<path d="M6.50002 0C2.91018 0 0 2.95534 0 6.6009C0.00260718 7.72013 0.285462 8.82044 0.548929 9.30929L6.50002 23L12.1876 9.79819H12.1846C12.7188 8.81984 12.9994 7.71962 13 6.6009C13 2.95534 10.0899 0 6.50002 0ZM6.50002 3.3004C6.92682 3.3004 7.34944 3.38577 7.74375 3.55164C8.13806 3.71751 8.49634 3.96062 8.79813 4.2671C9.09992 4.57358 9.33931 4.93743 9.50263 5.33786C9.66595 5.7383 9.75 6.16748 9.74999 6.6009C9.74999 7.47622 9.40758 8.3157 8.7981 8.93464C8.18861 9.55359 7.36197 9.90131 6.50002 9.90131C5.63808 9.90131 4.81144 9.55359 4.20195 8.93464C3.59246 8.3157 3.25006 7.47622 3.25006 6.6009C3.25006 5.72558 3.59246 4.88611 4.20195 4.26717C4.81144 3.64822 5.63808 3.3005 6.50002 3.3005V3.3004Z" fill="#E22A00"/>
</svg>
