<svg width="50" height="40" viewBox="0 0 50 40" fill="none" xmlns="http://www.w3.org/2000/svg">
<path d="M44.0175 7.4875C43.8275 6.7425 43.2875 6.18 42.67 6.0075C41.575 5.7 36.2525 5 25.0025 5C13.7525 5 8.4325 5.7 7.33 6.0075C6.72 6.1775 6.18 6.74 5.9875 7.4875C5.715 8.5475 5.0025 12.9875 5.0025 20C5.0025 27.0125 5.715 31.45 5.9875 32.515C6.1775 33.2575 6.7175 33.82 7.3325 33.99C8.4325 34.3 13.75 35 25 35C36.25 35 41.5725 34.3 42.6725 33.9925C43.2825 33.8225 43.8225 33.26 44.015 32.5125C44.29 31.4525 45 27 45 20C45 13 44.29 8.55 44.0175 7.4875ZM48.8575 6.245C50 10.7 50 20 50 20C50 20 50 29.3 48.8575 33.755C48.2225 36.2175 46.365 38.155 44.0125 38.81C39.7425 40 25 40 25 40C25 40 10.2675 40 5.9875 38.81C3.625 38.145 1.77 36.21 1.1425 33.755C7.45058e-08 29.3 0 20 0 20C0 20 7.45058e-08 10.7 1.1425 6.245C1.7775 3.7825 3.635 1.845 5.9875 1.19C10.27 -4.47035e-07 25.0025 0 25.0025 0C25.0025 0 39.7425 -4.47035e-07 44.015 1.19C46.375 1.855 48.2325 3.79 48.86 6.245M20.0025 28.75V11.25L35.0025 20L20.0025 28.75Z" fill="#131A12"/>
</svg>
