<svg width="35" height="35" viewBox="0 0 35 35" fill="none" xmlns="http://www.w3.org/2000/svg">
<path d="M28.5936 10.2007C28.4828 9.76613 28.1678 9.43801 27.8076 9.33738C27.1688 9.15801 24.064 8.74967 17.5015 8.74967C10.939 8.74967 7.83571 9.15801 7.19258 9.33738C6.83675 9.43655 6.52175 9.76467 6.40946 10.2007C6.2505 10.819 5.83487 13.409 5.83487 17.4997C5.83487 21.5903 6.2505 24.1788 6.40946 24.8001C6.52029 25.2332 6.83529 25.5613 7.19404 25.6605C7.83571 25.8413 10.9376 26.2497 17.5001 26.2497C24.0626 26.2497 27.1674 25.8413 27.809 25.662C28.1649 25.5628 28.4799 25.2347 28.5922 24.7986C28.7526 24.1803 29.1667 21.583 29.1667 17.4997C29.1667 13.4163 28.7526 10.8205 28.5936 10.2007ZM31.417 9.47592C32.0834 12.0747 32.0834 17.4997 32.0834 17.4997C32.0834 17.4997 32.0834 22.9247 31.417 25.5234C31.0465 26.9599 29.963 28.0901 28.5907 28.4722C26.0999 29.1663 17.5001 29.1663 17.5001 29.1663C17.5001 29.1663 8.90612 29.1663 6.40946 28.4722C5.03133 28.0843 3.94925 26.9555 3.58321 25.5234C2.91675 22.9247 2.91675 17.4997 2.91675 17.4997C2.91675 17.4997 2.91675 12.0747 3.58321 9.47592C3.95362 8.03947 5.03716 6.90926 6.40946 6.52717C8.90758 5.83301 17.5015 5.83301 17.5015 5.83301C17.5015 5.83301 26.0999 5.83301 28.5922 6.52717C29.9688 6.91509 31.0524 8.04384 31.4184 9.47592M14.5849 22.6038V12.3955L23.3349 17.4997L14.5849 22.6038Z" fill="white"/>
<path d="M28.5936 10.2007C28.4828 9.76613 28.1678 9.43801 27.8076 9.33738C27.1688 9.15801 24.064 8.74967 17.5015 8.74967C10.939 8.74967 7.83571 9.15801 7.19258 9.33738C6.83675 9.43655 6.52175 9.76467 6.40946 10.2007C6.2505 10.819 5.83487 13.409 5.83487 17.4997C5.83487 21.5903 6.2505 24.1788 6.40946 24.8001C6.52029 25.2332 6.83529 25.5613 7.19404 25.6605C7.83571 25.8413 10.9376 26.2497 17.5001 26.2497C24.0626 26.2497 27.1674 25.8413 27.809 25.662C28.1649 25.5628 28.4799 25.2347 28.5922 24.7986C28.7526 24.1803 29.1667 21.583 29.1667 17.4997C29.1667 13.4163 28.7526 10.8205 28.5936 10.2007ZM31.417 9.47592C32.0834 12.0747 32.0834 17.4997 32.0834 17.4997C32.0834 17.4997 32.0834 22.9247 31.417 25.5234C31.0465 26.9599 29.963 28.0901 28.5907 28.4722C26.0999 29.1663 17.5001 29.1663 17.5001 29.1663C17.5001 29.1663 8.90612 29.1663 6.40946 28.4722C5.03133 28.0843 3.94925 26.9555 3.58321 25.5234C2.91675 22.9247 2.91675 17.4997 2.91675 17.4997C2.91675 17.4997 2.91675 12.0747 3.58321 9.47592C3.95362 8.03947 5.03716 6.90926 6.40946 6.52717C8.90758 5.83301 17.5015 5.83301 17.5015 5.83301C17.5015 5.83301 26.0999 5.83301 28.5922 6.52717C29.9688 6.91509 31.0524 8.04384 31.4184 9.47592M14.5849 22.6038V12.3955L23.3349 17.4997L14.5849 22.6038Z" fill="white"/>
</svg>
